<svg xmlns="http://www.w3.org/2000/svg" version="1.1" xmlns:xlink="http://www.w3.org/1999/xlink" xmlns:svgjs="http://svgjs.dev/svgjs" width="1440" height="560" preserveAspectRatio="none" viewBox="0 0 1440 560"><g mask="url(&quot;#SvgjsMask1014&quot;)" fill="none"><rect width="1440" height="560" x="0" y="0" fill="rgba(111, 90, 205, 1)"></rect><path d="M 0,6 C 57.6,56.4 172.8,256.2 288,258 C 403.2,259.8 460.8,28.6 576,15 C 691.2,1.4 748.8,187.4 864,190 C 979.2,192.6 1036.8,15 1152,28 C 1267.2,41 1382.4,209.6 1440,255L1440 560L0 560z" fill="rgba(79, 66, 140, 1)"></path><path d="M 0,283 C 96,336 288,547.4 480,548 C 672,548.6 768,295 960,286 C 1152,277 1344,459.6 1440,503L1440 560L0 560z" fill="rgba(41, 31, 87, 1)"></path></g><defs><mask id="SvgjsMask1014"><rect width="1440" height="560" fill="#ffffff"></rect></mask></defs></svg>